G75*
G70*
%OFA0B0*%
%FSLAX24Y24*%
%IPPOS*%
%LPD*%
%AMOC8*
5,1,8,0,0,1.08239X$1,22.5*
%
%ADD10C,0.0000*%
D10*
X000151Y000534D02*
X000151Y010534D01*
X020151Y010534D01*
X020151Y000534D01*
X000151Y000534D01*
X001487Y001604D02*
X001489Y001630D01*
X001495Y001656D01*
X001505Y001681D01*
X001518Y001704D01*
X001534Y001724D01*
X001554Y001742D01*
X001576Y001757D01*
X001599Y001769D01*
X001625Y001777D01*
X001651Y001781D01*
X001677Y001781D01*
X001703Y001777D01*
X001729Y001769D01*
X001753Y001757D01*
X001774Y001742D01*
X001794Y001724D01*
X001810Y001704D01*
X001823Y001681D01*
X001833Y001656D01*
X001839Y001630D01*
X001841Y001604D01*
X001839Y001578D01*
X001833Y001552D01*
X001823Y001527D01*
X001810Y001504D01*
X001794Y001484D01*
X001774Y001466D01*
X001752Y001451D01*
X001729Y001439D01*
X001703Y001431D01*
X001677Y001427D01*
X001651Y001427D01*
X001625Y001431D01*
X001599Y001439D01*
X001575Y001451D01*
X001554Y001466D01*
X001534Y001484D01*
X001518Y001504D01*
X001505Y001527D01*
X001495Y001552D01*
X001489Y001578D01*
X001487Y001604D01*
X004282Y001604D02*
X004284Y001630D01*
X004290Y001656D01*
X004300Y001681D01*
X004313Y001704D01*
X004329Y001724D01*
X004349Y001742D01*
X004371Y001757D01*
X004394Y001769D01*
X004420Y001777D01*
X004446Y001781D01*
X004472Y001781D01*
X004498Y001777D01*
X004524Y001769D01*
X004548Y001757D01*
X004569Y001742D01*
X004589Y001724D01*
X004605Y001704D01*
X004618Y001681D01*
X004628Y001656D01*
X004634Y001630D01*
X004636Y001604D01*
X004634Y001578D01*
X004628Y001552D01*
X004618Y001527D01*
X004605Y001504D01*
X004589Y001484D01*
X004569Y001466D01*
X004547Y001451D01*
X004524Y001439D01*
X004498Y001431D01*
X004472Y001427D01*
X004446Y001427D01*
X004420Y001431D01*
X004394Y001439D01*
X004370Y001451D01*
X004349Y001466D01*
X004329Y001484D01*
X004313Y001504D01*
X004300Y001527D01*
X004290Y001552D01*
X004284Y001578D01*
X004282Y001604D01*
M02*
