%
M48
M72
T01C0.0236
T02C0.0354
T03C0.0400
%
T01
X3031Y3814
X4471Y4054
X12791Y8134
X14391Y7974
X15031Y7974
X15031Y7174
X14391Y7174
X14391Y6374
X15031Y6374
X16071Y6614
X16791Y7414
X15031Y8774
X14391Y8774
X14391Y9574
X15031Y9574
X17831Y9654
X13351Y6454
X18871Y4454
T02
X1664Y1604
X4459Y1604
T03
X7871Y2394
X8871Y2394
X12431Y2314
X13431Y2314
X17711Y2374
X18711Y2374
M30
