G75*
G70*
%OFA0B0*%
%FSLAX24Y24*%
%IPPOS*%
%LPD*%
%AMOC8*
5,1,8,0,0,1.08239X$1,22.5*
%
%ADD10C,0.0740*%
%ADD11R,0.0512X0.0128*%
%ADD12R,0.1181X0.2165*%
%ADD13R,0.0591X0.0512*%
%ADD14R,0.0394X0.0433*%
%ADD15R,0.0350X0.0310*%
%ADD16R,0.0433X0.0394*%
%ADD17R,0.0880X0.0480*%
%ADD18R,0.0866X0.1417*%
%ADD19R,0.1063X0.1161*%
%ADD20R,0.1378X0.2126*%
%ADD21R,0.0472X0.0984*%
%ADD22R,0.0315X0.0315*%
%ADD23C,0.0120*%
%ADD24C,0.0400*%
%ADD25C,0.0160*%
%ADD26C,0.0320*%
%ADD27C,0.0396*%
%ADD28C,0.0560*%
D10*
X007871Y002024D02*
X007871Y002764D01*
X008871Y002764D02*
X008871Y002024D01*
X012431Y001944D02*
X012431Y002684D01*
X013431Y002684D02*
X013431Y001944D01*
X017711Y002004D02*
X017711Y002744D01*
X018711Y002744D02*
X018711Y002004D01*
D11*
X015863Y007089D03*
X015863Y007344D03*
X015863Y007600D03*
X015863Y007856D03*
X015863Y008112D03*
X015863Y008368D03*
X015863Y008624D03*
X015863Y008880D03*
X013540Y008880D03*
X013540Y008624D03*
X013540Y008368D03*
X013540Y008112D03*
X013540Y007856D03*
X013540Y007600D03*
X013540Y007344D03*
X013540Y007089D03*
D12*
X014701Y007984D03*
D13*
X017091Y008920D03*
X017091Y009668D03*
X011881Y007838D03*
X011881Y007090D03*
D14*
X012577Y005504D03*
X013246Y005504D03*
X011546Y004184D03*
X010877Y004184D03*
X010857Y003334D03*
X011526Y003334D03*
X016017Y002234D03*
X016686Y002234D03*
X016477Y006064D03*
X017146Y006064D03*
D15*
X018271Y004434D03*
X017471Y004054D03*
X018271Y003674D03*
X015451Y002554D03*
X014651Y002174D03*
X015451Y001794D03*
D16*
X018401Y005280D03*
X019231Y005260D03*
X019231Y005929D03*
X018401Y005949D03*
D17*
X015921Y005114D03*
X015921Y004204D03*
X015921Y003294D03*
D18*
X013481Y004204D03*
D19*
X018991Y006935D03*
X018991Y009593D03*
D20*
X010248Y007694D03*
X006114Y007694D03*
D21*
X002077Y002687D03*
X003061Y002687D03*
X004045Y002687D03*
D22*
X010791Y002509D03*
X010791Y001919D03*
D23*
X011546Y004184D02*
X011576Y004214D01*
X011831Y004214D01*
X011991Y004374D01*
X011991Y005894D01*
X012951Y006854D01*
X012951Y007094D01*
X013201Y007344D01*
X013540Y007344D01*
X013540Y007089D02*
X013540Y006643D01*
X013351Y006454D01*
X012631Y005734D01*
X012631Y005559D01*
X012577Y005504D01*
X013246Y005504D02*
X013601Y005504D01*
X013831Y005734D01*
X016391Y005734D01*
X016471Y005814D01*
X016471Y006059D01*
X016477Y006064D01*
X016471Y006070D01*
X016471Y006374D01*
X017271Y007174D01*
X017271Y007654D01*
X017069Y007856D01*
X015863Y007856D01*
X015863Y007600D02*
X016605Y007600D01*
X016791Y007414D01*
X016311Y007014D02*
X016237Y007089D01*
X015863Y007089D01*
X015339Y006817D02*
X014083Y006817D01*
X013994Y006698D02*
X015428Y006698D01*
X015517Y006580D02*
X013905Y006580D01*
X013817Y006461D02*
X015606Y006461D01*
X015671Y006374D02*
X015671Y006054D01*
X013751Y006054D01*
X013751Y006374D01*
X014231Y007014D01*
X014231Y008934D01*
X013751Y009574D01*
X013751Y009894D01*
X015671Y009894D01*
X015671Y009574D01*
X015191Y008934D01*
X015191Y007014D01*
X015671Y006374D01*
X015671Y006343D02*
X013751Y006343D01*
X013751Y006224D02*
X015671Y006224D01*
X015671Y006106D02*
X013751Y006106D01*
X014172Y006936D02*
X015250Y006936D01*
X015191Y007054D02*
X014231Y007054D01*
X014231Y007173D02*
X015191Y007173D01*
X015191Y007291D02*
X014231Y007291D01*
X014231Y007410D02*
X015191Y007410D01*
X015191Y007528D02*
X014231Y007528D01*
X014231Y007647D02*
X015191Y007647D01*
X015191Y007765D02*
X014231Y007765D01*
X014231Y007884D02*
X015191Y007884D01*
X015191Y008002D02*
X014231Y008002D01*
X014231Y008121D02*
X015191Y008121D01*
X015191Y008239D02*
X014231Y008239D01*
X014231Y008358D02*
X015191Y008358D01*
X015191Y008477D02*
X014231Y008477D01*
X014231Y008595D02*
X015191Y008595D01*
X015191Y008714D02*
X014231Y008714D01*
X014231Y008832D02*
X015191Y008832D01*
X015204Y008951D02*
X014219Y008951D01*
X014130Y009069D02*
X015293Y009069D01*
X015381Y009188D02*
X014041Y009188D01*
X013952Y009306D02*
X015470Y009306D01*
X015559Y009425D02*
X013863Y009425D01*
X013774Y009543D02*
X015648Y009543D01*
X015671Y009662D02*
X013751Y009662D01*
X013751Y009781D02*
X015671Y009781D01*
X015863Y008624D02*
X015863Y008368D01*
X015863Y008112D01*
X016311Y007014D02*
X016311Y006854D01*
X016071Y006614D01*
X017146Y006064D02*
X017661Y006064D01*
X017751Y005974D01*
X018271Y004434D02*
X018851Y004434D01*
X018871Y004454D01*
X013540Y007600D02*
X012817Y007600D01*
X012631Y007414D01*
X012631Y007174D01*
X012551Y007094D01*
X011885Y007094D01*
X011881Y007090D01*
X011881Y007838D02*
X012495Y007838D01*
X012791Y008134D01*
X013069Y007856D01*
X013540Y007856D01*
X013540Y008112D02*
X012813Y008112D01*
X012791Y008134D01*
X013025Y008368D01*
X013540Y008368D01*
X013540Y008624D02*
X013540Y008774D01*
X013540Y008880D01*
X003061Y002687D02*
X003031Y002717D01*
D24*
X002077Y002687D02*
X002077Y004140D01*
X002711Y004774D01*
X004791Y004774D01*
X005151Y005134D01*
X005111Y005174D01*
X005111Y007494D01*
X005351Y007734D01*
X006074Y007734D01*
X006114Y007694D01*
X005151Y005134D02*
X005511Y004774D01*
X007591Y004774D01*
X007871Y004494D01*
X007871Y004054D01*
X007871Y003574D01*
X007871Y002394D01*
X004471Y004054D02*
X004045Y003628D01*
X004045Y002687D01*
X012391Y002354D02*
X012431Y002314D01*
X012471Y002354D01*
X012471Y003414D01*
X013261Y004204D01*
X013481Y004204D01*
X015921Y004204D01*
X015921Y005114D02*
X016441Y005094D01*
X017111Y005094D01*
X017751Y005734D01*
X017751Y005894D01*
X017751Y005974D01*
X017751Y006614D01*
X018072Y006935D01*
X018991Y006935D01*
X019070Y006934D01*
X017751Y006614D02*
X017751Y008054D01*
X017411Y008394D01*
X017031Y008394D01*
X017031Y008374D01*
X017111Y008374D01*
X017111Y008920D01*
X017091Y008920D01*
X017111Y008374D02*
X017271Y008374D01*
X017031Y008374D02*
X016231Y008374D01*
X016225Y008368D01*
X017091Y009668D02*
X017831Y009668D01*
X017831Y009654D01*
X017831Y009593D01*
X018612Y009593D01*
D25*
X018991Y009593D01*
X019231Y005929D02*
X018421Y005929D01*
X018401Y005949D01*
X017806Y005949D01*
X017751Y005894D01*
X018177Y005280D02*
X017431Y004534D01*
X017431Y004094D01*
X017431Y004064D01*
X016651Y003284D01*
X015931Y003284D01*
X015921Y003294D01*
X016101Y002734D02*
X016051Y002684D01*
X016051Y002219D01*
X016017Y002234D01*
X016017Y002174D01*
X014651Y002174D01*
X015451Y001794D02*
X015741Y001794D01*
X015851Y001684D01*
X016601Y001684D01*
X016701Y001784D01*
X016701Y002169D01*
X016686Y002234D01*
X016886Y002384D01*
X017701Y002384D01*
X017711Y002374D01*
X016651Y002734D02*
X016101Y002734D01*
X016651Y002734D02*
X017351Y003434D01*
X017751Y003434D01*
X017991Y003674D01*
X018271Y003674D01*
X018291Y003654D01*
X019271Y003654D01*
X019511Y003894D01*
X019511Y004774D01*
X019231Y005054D01*
X019231Y005260D01*
X018401Y005280D02*
X018177Y005280D01*
X017431Y004094D02*
X017471Y004054D01*
X015451Y002554D02*
X013671Y002554D01*
X013431Y002314D01*
X012391Y003334D02*
X012471Y003414D01*
X012391Y003334D02*
X011526Y003334D01*
X010857Y003334D02*
X010791Y003269D01*
X010791Y002509D01*
X010791Y001919D02*
X010286Y001919D01*
X009831Y002374D01*
X008891Y002374D01*
X008871Y002394D01*
X008951Y002474D01*
X007871Y003574D02*
X007957Y003660D01*
X007871Y004054D02*
X007877Y004060D01*
X010877Y004184D02*
X010877Y004849D01*
X010871Y004854D01*
X003031Y003814D02*
X003031Y002717D01*
D26*
X007871Y004494D02*
X008231Y004854D01*
X010871Y004854D01*
X011031Y004854D01*
X011511Y005334D01*
X011511Y006294D01*
X011885Y006668D01*
X011885Y007094D01*
X010591Y007694D02*
X010248Y007694D01*
X010391Y007837D01*
X010391Y007974D01*
X011191Y008774D01*
X013540Y008774D01*
D27*
X014391Y008774D03*
X015031Y008774D03*
X015031Y007974D03*
X014391Y007974D03*
X014391Y007174D03*
X015031Y007174D03*
X016071Y006614D03*
X015031Y006374D03*
X014391Y006374D03*
X013351Y006454D03*
X012791Y008134D03*
X014391Y009574D03*
X015031Y009574D03*
X017831Y009654D03*
X016791Y007414D03*
X018871Y004454D03*
X004471Y004054D03*
X003031Y003814D03*
D28*
X015863Y008368D02*
X016225Y008368D01*
M02*
