G75*
G70*
%OFA0B0*%
%FSLAX24Y24*%
%IPPOS*%
%LPD*%
%AMOC8*
5,1,8,0,0,1.08239X$1,22.5*
%
%ADD10C,0.0740*%
%ADD11C,0.0396*%
%ADD12C,0.0320*%
%ADD13C,0.0160*%
D10*
X007871Y002024D02*
X007871Y002764D01*
X008871Y002764D02*
X008871Y002024D01*
X012431Y001944D02*
X012431Y002684D01*
X013431Y002684D02*
X013431Y001944D01*
X017711Y002004D02*
X017711Y002744D01*
X018711Y002744D02*
X018711Y002004D01*
D11*
X018871Y004454D03*
X015031Y006374D03*
X014391Y006374D03*
X013351Y006454D03*
X014391Y007174D03*
X015031Y007174D03*
X016071Y006614D03*
X016791Y007414D03*
X015031Y007974D03*
X014391Y007974D03*
X014391Y008774D03*
X015031Y008774D03*
X015031Y009574D03*
X014391Y009574D03*
X012791Y008134D03*
X017831Y009654D03*
X004471Y004054D03*
X003031Y003814D03*
D12*
X000711Y005334D02*
X000711Y001655D01*
X000926Y001656D01*
X000926Y001751D01*
X001039Y002022D01*
X001246Y002229D01*
X001517Y002341D01*
X001810Y002341D01*
X002081Y002229D01*
X002288Y002022D01*
X002401Y001751D01*
X002401Y001662D01*
X003722Y001668D01*
X003722Y001751D01*
X003834Y002022D01*
X004041Y002229D01*
X004312Y002341D01*
X004605Y002341D01*
X004876Y002229D01*
X005084Y002022D01*
X005196Y001751D01*
X005196Y001674D01*
X007006Y001681D01*
X006941Y001839D01*
X006941Y002949D01*
X007083Y003291D01*
X007344Y003553D01*
X007686Y003694D01*
X008056Y003694D01*
X008398Y003553D01*
X008612Y003339D01*
X008629Y003348D01*
X008724Y003379D01*
X008822Y003394D01*
X008871Y003394D01*
X008871Y002395D01*
X008871Y002395D01*
X008871Y003394D01*
X008921Y003394D01*
X009019Y003379D01*
X009113Y003348D01*
X009201Y003303D01*
X009282Y003245D01*
X009352Y003175D01*
X009410Y003094D01*
X009455Y003006D01*
X009486Y002912D01*
X009501Y002814D01*
X009501Y002394D01*
X008872Y002394D01*
X008872Y002394D01*
X009501Y002394D01*
X009501Y001975D01*
X009486Y001877D01*
X009455Y001782D01*
X009410Y001694D01*
X009408Y001691D01*
X011526Y001700D01*
X011501Y001759D01*
X011501Y002869D01*
X011643Y003211D01*
X011904Y003473D01*
X012246Y003614D01*
X012616Y003614D01*
X012958Y003473D01*
X013172Y003259D01*
X013189Y003268D01*
X013284Y003299D01*
X013382Y003314D01*
X013431Y003314D01*
X013431Y002315D01*
X013431Y002315D01*
X013431Y003314D01*
X013481Y003314D01*
X013579Y003299D01*
X013673Y003268D01*
X013761Y003223D01*
X013842Y003165D01*
X013912Y003095D01*
X013970Y003014D01*
X014015Y002926D01*
X014046Y002832D01*
X014061Y002734D01*
X014061Y002314D01*
X013432Y002314D01*
X013432Y002314D01*
X014061Y002314D01*
X014061Y001895D01*
X014046Y001797D01*
X014018Y001710D01*
X016821Y001722D01*
X016781Y001819D01*
X016781Y002929D01*
X016923Y003271D01*
X017184Y003533D01*
X017526Y003674D01*
X017896Y003674D01*
X018238Y003533D01*
X018452Y003319D01*
X018469Y003328D01*
X018564Y003359D01*
X018662Y003374D01*
X018711Y003374D01*
X018711Y002375D01*
X018711Y002375D01*
X018711Y003374D01*
X018761Y003374D01*
X018859Y003359D01*
X018953Y003328D01*
X019041Y003283D01*
X019122Y003225D01*
X019192Y003155D01*
X019250Y003074D01*
X019295Y002986D01*
X019326Y002892D01*
X019341Y002794D01*
X019341Y002374D01*
X018712Y002374D01*
X018712Y002374D01*
X019341Y002374D01*
X019341Y001955D01*
X019326Y001857D01*
X019295Y001762D01*
X019280Y001732D01*
X019591Y001734D01*
X019591Y009974D01*
X011200Y009974D01*
X011258Y006214D01*
X014926Y006214D01*
X015313Y006601D01*
X015313Y006765D01*
X015428Y007044D01*
X015642Y007257D01*
X015920Y007372D01*
X016222Y007372D01*
X016501Y007257D01*
X016714Y007044D01*
X016829Y006765D01*
X016829Y006463D01*
X016714Y006185D01*
X016501Y005971D01*
X016489Y005966D01*
X015734Y005212D01*
X015554Y005032D01*
X015318Y004934D01*
X005056Y004934D01*
X003789Y003667D01*
X003789Y003663D01*
X003674Y003385D01*
X003461Y003171D01*
X003182Y003056D01*
X002880Y003056D01*
X002602Y003171D01*
X002388Y003385D01*
X002273Y003663D01*
X002273Y003965D01*
X002388Y004244D01*
X002602Y004457D01*
X002880Y004572D01*
X002884Y004572D01*
X003646Y005334D01*
X000711Y005334D01*
X000711Y005312D02*
X003624Y005312D01*
X003306Y004994D02*
X000711Y004994D01*
X000711Y004675D02*
X002987Y004675D01*
X002502Y004357D02*
X000711Y004357D01*
X000711Y004038D02*
X002303Y004038D01*
X002273Y003720D02*
X000711Y003720D01*
X000711Y003401D02*
X002382Y003401D01*
X002816Y003083D02*
X000711Y003083D01*
X000711Y002764D02*
X006941Y002764D01*
X006941Y002445D02*
X000711Y002445D01*
X000711Y002127D02*
X001144Y002127D01*
X000950Y001808D02*
X000711Y001808D01*
X002183Y002127D02*
X003939Y002127D01*
X003746Y001808D02*
X002377Y001808D01*
X003246Y003083D02*
X006996Y003083D01*
X007193Y003401D02*
X003681Y003401D01*
X003842Y003720D02*
X019591Y003720D01*
X019591Y004038D02*
X004160Y004038D01*
X004479Y004357D02*
X019591Y004357D01*
X019591Y004675D02*
X004797Y004675D01*
X008549Y003401D02*
X011833Y003401D01*
X011590Y003083D02*
X009416Y003083D01*
X009501Y002764D02*
X011501Y002764D01*
X011501Y002445D02*
X009501Y002445D01*
X009501Y002127D02*
X011501Y002127D01*
X011501Y001808D02*
X009463Y001808D01*
X008871Y002445D02*
X008871Y002445D01*
X008871Y002764D02*
X008871Y002764D01*
X008871Y003083D02*
X008871Y003083D01*
X006941Y002127D02*
X004979Y002127D01*
X005172Y001808D02*
X006954Y001808D01*
X013029Y003401D02*
X017053Y003401D01*
X016845Y003083D02*
X013920Y003083D01*
X013431Y003083D02*
X013431Y003083D01*
X013431Y002764D02*
X013431Y002764D01*
X013431Y002445D02*
X013431Y002445D01*
X014061Y002445D02*
X016781Y002445D01*
X016781Y002127D02*
X014061Y002127D01*
X014047Y001808D02*
X016786Y001808D01*
X016781Y002764D02*
X014056Y002764D01*
X015462Y004994D02*
X019591Y004994D01*
X019591Y005312D02*
X015834Y005312D01*
X016153Y005631D02*
X019591Y005631D01*
X019591Y005949D02*
X016471Y005949D01*
X016748Y006268D02*
X019591Y006268D01*
X019591Y006586D02*
X016829Y006586D01*
X016771Y006905D02*
X019591Y006905D01*
X019591Y007224D02*
X016534Y007224D01*
X015608Y007224D02*
X011242Y007224D01*
X011237Y007542D02*
X019591Y007542D01*
X019591Y007861D02*
X011232Y007861D01*
X011227Y008179D02*
X019591Y008179D01*
X019591Y008498D02*
X011223Y008498D01*
X011218Y008816D02*
X019591Y008816D01*
X019591Y009135D02*
X011213Y009135D01*
X011208Y009453D02*
X019591Y009453D01*
X019591Y009772D02*
X011203Y009772D01*
X011247Y006905D02*
X015371Y006905D01*
X015298Y006586D02*
X011252Y006586D01*
X011257Y006268D02*
X014980Y006268D01*
X018369Y003401D02*
X019591Y003401D01*
X019591Y003083D02*
X019244Y003083D01*
X019341Y002764D02*
X019591Y002764D01*
X019591Y002445D02*
X019341Y002445D01*
X019341Y002127D02*
X019591Y002127D01*
X019591Y001808D02*
X019310Y001808D01*
X018711Y002445D02*
X018711Y002445D01*
X018711Y002764D02*
X018711Y002764D01*
X018711Y003083D02*
X018711Y003083D01*
D13*
X016071Y006454D02*
X015191Y005574D01*
X004791Y005574D01*
X003031Y003814D01*
X016071Y006454D02*
X016071Y006614D01*
M02*
